<svg width="152" height="74" viewBox="0 0 152 74" fill="none" xmlns="http://www.w3.org/2000/svg">
<g clip-path="url(#clip0_317_2)">
<path d="M0 0H122C138.569 0 152 13.4315 152 30V74H30C13.4315 74 0 60.5685 0 44V0Z" fill="#00D1FF"/>
<path d="M11.056 53.888L10.608 12.544C10.608 11.52 11.0133 10.6453 11.824 9.92C12.6773 9.152 13.6373 8.61866 14.704 8.32C15.7707 8.02133 16.7733 7.97866 17.712 8.192C18.6507 8.40533 19.248 8.96 19.504 9.856C20.3147 11.4773 20.8693 13.7173 21.168 16.576C21.7227 21.9093 22 26.5173 22 30.4C22.4267 31.0827 22.96 31.4027 23.6 31.36C25.4347 26.88 27.4613 22.5707 29.68 18.432C31.8987 14.2933 33.328 11.648 33.968 10.496C34.608 9.30133 35.376 8.46933 36.272 8C37.168 7.53066 38.128 7.232 39.152 7.104C41.3707 6.848 43.4613 7.232 45.424 8.256C46.9173 8.768 47.792 9.64266 48.048 10.88C49.0293 12.8427 48.368 15.104 46.064 17.664C43.376 21.9307 40.6667 26.6453 37.936 31.808C32.7307 41.7493 29.424 47.872 28.016 50.176C26.608 52.48 25.584 54.1227 24.944 55.104C24.304 56.0427 23.5787 56.832 22.768 57.472C21.3173 58.624 19.568 59.0933 17.52 58.88C13.936 58.752 11.8453 57.6213 11.248 55.488C11.12 54.8907 11.056 54.3573 11.056 53.888ZM53.2344 56.4688C51.2656 56.4688 49.5 56.1562 47.9375 55.5312C46.375 54.8906 45.0469 54.0078 43.9531 52.8828C42.875 51.7578 42.0469 50.4531 41.4688 48.9688C40.8906 47.4688 40.6016 45.875 40.6016 44.1875V43.25C40.6016 41.3281 40.875 39.5703 41.4219 37.9766C41.9688 36.3828 42.75 35 43.7656 33.8281C44.7969 32.6562 46.0469 31.7578 47.5156 31.1328C48.9844 30.4922 50.6406 30.1719 52.4844 30.1719C54.2812 30.1719 55.875 30.4688 57.2656 31.0625C58.6562 31.6562 59.8203 32.5 60.7578 33.5938C61.7109 34.6875 62.4297 36 62.9141 37.5312C63.3984 39.0469 63.6406 40.7344 63.6406 42.5938V45.4062H43.4844V40.9062H57.0078V40.3906C57.0078 39.4531 56.8359 38.6172 56.4922 37.8828C56.1641 37.1328 55.6641 36.5391 54.9922 36.1016C54.3203 35.6641 53.4609 35.4453 52.4141 35.4453C51.5234 35.4453 50.7578 35.6406 50.1172 36.0312C49.4766 36.4219 48.9531 36.9688 48.5469 37.6719C48.1562 38.375 47.8594 39.2031 47.6562 40.1562C47.4688 41.0938 47.375 42.125 47.375 43.25V44.1875C47.375 45.2031 47.5156 46.1406 47.7969 47C48.0938 47.8594 48.5078 48.6016 49.0391 49.2266C49.5859 49.8516 50.2422 50.3359 51.0078 50.6797C51.7891 51.0234 52.6719 51.1953 53.6562 51.1953C54.875 51.1953 56.0078 50.9609 57.0547 50.4922C58.1172 50.0078 59.0312 49.2812 59.7969 48.3125L63.0781 51.875C62.5469 52.6406 61.8203 53.375 60.8984 54.0781C59.9922 54.7812 58.8984 55.3594 57.6172 55.8125C56.3359 56.25 54.875 56.4688 53.2344 56.4688ZM77.9609 51.1953C78.7891 51.1953 79.5234 51.0391 80.1641 50.7266C80.8047 50.3984 81.3047 49.9453 81.6641 49.3672C82.0391 48.7734 82.2344 48.0781 82.25 47.2812H88.6016C88.5859 49.0625 88.1094 50.6484 87.1719 52.0391C86.2344 53.4141 84.9766 54.5 83.3984 55.2969C81.8203 56.0781 80.0547 56.4688 78.1016 56.4688C76.1328 56.4688 74.4141 56.1406 72.9453 55.4844C71.4922 54.8281 70.2812 53.9219 69.3125 52.7656C68.3438 51.5938 67.6172 50.2344 67.1328 48.6875C66.6484 47.125 66.4062 45.4531 66.4062 43.6719V42.9922C66.4062 41.1953 66.6484 39.5234 67.1328 37.9766C67.6172 36.4141 68.3438 35.0547 69.3125 33.8984C70.2812 32.7266 71.4922 31.8125 72.9453 31.1562C74.3984 30.5 76.1016 30.1719 78.0547 30.1719C80.1328 30.1719 81.9531 30.5703 83.5156 31.3672C85.0938 32.1641 86.3281 33.3047 87.2188 34.7891C88.125 36.2578 88.5859 38 88.6016 40.0156H82.25C82.2344 39.1719 82.0547 38.4062 81.7109 37.7188C81.3828 37.0312 80.8984 36.4844 80.2578 36.0781C79.6328 35.6562 78.8594 35.4453 77.9375 35.4453C76.9531 35.4453 76.1484 35.6562 75.5234 36.0781C74.8984 36.4844 74.4141 37.0469 74.0703 37.7656C73.7266 38.4688 73.4844 39.2734 73.3438 40.1797C73.2188 41.0703 73.1562 42.0078 73.1562 42.9922V43.6719C73.1562 44.6562 73.2188 45.6016 73.3438 46.5078C73.4688 47.4141 73.7031 48.2188 74.0469 48.9219C74.4062 49.625 74.8984 50.1797 75.5234 50.5859C76.1484 50.9922 76.9609 51.1953 77.9609 51.1953ZM99.1016 20V56H92.3516V20H99.1016ZM98.1406 42.4297H96.2891C96.3047 40.6641 96.5391 39.0391 96.9922 37.5547C97.4453 36.0547 98.0938 34.7578 98.9375 33.6641C99.7812 32.5547 100.789 31.6953 101.961 31.0859C103.148 30.4766 104.461 30.1719 105.898 30.1719C107.148 30.1719 108.281 30.3516 109.297 30.7109C110.328 31.0547 111.211 31.6172 111.945 32.3984C112.695 33.1641 113.273 34.1719 113.68 35.4219C114.086 36.6719 114.289 38.1875 114.289 39.9688V56H107.492V39.9219C107.492 38.7969 107.328 37.9141 107 37.2734C106.688 36.6172 106.227 36.1562 105.617 35.8906C105.023 35.6094 104.289 35.4688 103.414 35.4688C102.445 35.4688 101.617 35.6484 100.93 36.0078C100.258 36.3672 99.7188 36.8672 99.3125 37.5078C98.9062 38.1328 98.6094 38.8672 98.4219 39.7109C98.2344 40.5547 98.1406 41.4609 98.1406 42.4297ZM126.172 36.1719V56H119.422V30.6406H125.773L126.172 36.1719ZM133.812 30.4766L133.695 36.7344C133.367 36.6875 132.969 36.6484 132.5 36.6172C132.047 36.5703 131.633 36.5469 131.258 36.5469C130.305 36.5469 129.477 36.6719 128.773 36.9219C128.086 37.1562 127.508 37.5078 127.039 37.9766C126.586 38.4453 126.242 39.0156 126.008 39.6875C125.789 40.3594 125.664 41.125 125.633 41.9844L124.273 41.5625C124.273 39.9219 124.438 38.4141 124.766 37.0391C125.094 35.6484 125.57 34.4375 126.195 33.4062C126.836 32.375 127.617 31.5781 128.539 31.0156C129.461 30.4531 130.516 30.1719 131.703 30.1719C132.078 30.1719 132.461 30.2031 132.852 30.2656C133.242 30.3125 133.562 30.3828 133.812 30.4766Z" fill="white"/>
<path d="M138 8.65789L40.0507 7L29 49C31.679 41.2632 41.5576 24.1316 59.6406 17.5C82.2442 9.21053 112.885 23.0263 138 8.65789Z" fill="white"/>
<path d="M125.5 60.5C133.001 59.5999 139.1 53.2 145.5 42C142.833 50 141 67 131.5 68.5L131.311 68.5299C126.526 69.2864 122.259 69.961 104 67C78.9874 62.9439 41.8333 62.8333 38 64C58 56 100.5 63.5 125.5 60.5Z" fill="white"/>
<path d="M128.5 18L129.286 20.4184H131.829L129.771 21.9131L130.557 24.3316L128.5 22.8369L126.443 24.3316L127.229 21.9131L125.171 20.4184H127.714L128.5 18Z" fill="white"/>
<path d="M100.5 8C92.5 8 43 1.5 23.5 31L26.5 3.5L100.5 8Z" fill="#00D1FF"/>
</g>
<defs>
<clipPath id="clip0_317_2">
<path d="M0 0H122C138.569 0 152 13.4315 152 30V74H30C13.4315 74 0 60.5685 0 44V0Z" fill="white"/>
</clipPath>
</defs>
</svg>
